# xmcd
#
# Track frame offsets: 
#        150
#        9095
#        26040
#        40375
#        50730
#        64300
#        73730
#        82385
#        98405
#        107410
#        122110
#        139695
#        155700
#        176125
#        187220
#        197325
#
# Disc length: 2792 seconds
#
# Revision: 4
# Processed by: cddbd v1.5.1PL0 Copyright (c) Steve Scherf et al.
# Submitted via: ExactAudioCopy v0.95a5
#
DISCID=e50ae610
DTITLE=Various Artist - I Put a Spell On You
DYEAR=1996
DGENRE=Blues
TTITLE0=Screaming Jay Hawkins - I Put a Spell On You
TTITLE1=Cissy Houston - I'm So Glad I'm In Love Again
TTITLE2=Earl Fatha Hines - Honeysuckle Man
TTITLE3=Billie Holiday - Lover Come Back To Me
TTITLE4=Memphis Slim - I Guess I'm a Fool
TTITLE5=Bo Diddley - Hey Bo Diddley
TTITLE6=Roy Brown - Let the Four Winds Blow
TTITLE7=Big Joe Turner - When the Sun Go Down
TTITLE8=Bo Diddley - Crackin' Up
TTITLE9=B. B. King - B. B. Boogie
TTITLE10=Etta James - I'd Rather Go Blind
TTITLE11=Lightning Slim - Crazy 'Bout You Baby
TTITLE12=Barbara Mason - If Loving You Is Wrong
TTITLE13=Howlin' Wolf - Little Red Rooster
TTITLE14=James Cotton - I Need You So Bad
TTITLE15=Spaniels - Goodnight Sweetheart, Goodnight
EXTD=LABEL =CMC Home Entertainment\nID =10094-2\nUPC =5703976-10152
EXTD=2\nCOPYRIGHT =1996
EXTT0=
EXTT1=
EXTT2=
EXTT3=
EXTT4=
EXTT5=
EXTT6=
EXTT7=
EXTT8=
EXTT9=
EXTT10=
EXTT11=
EXTT12=
EXTT13=
EXTT14=
EXTT15=
PLAYORDER=
